<?xml version="1.0" encoding="utf-8"?>
<!-- Generator: Adobe Illustrator 18.1.1, SVG Export Plug-In . SVG Version: 6.00 Build 0)  -->
<svg version="1.1" id="Layer_1" xmlns="http://www.w3.org/2000/svg" xmlns:xlink="http://www.w3.org/1999/xlink" x="0px" y="0px"
	 viewBox="0 0 720 480" style="enable-background:new 0 0 720 480;" xml:space="preserve">
<style type="text/css">
	.st0{fill:#CF00EF;}
	.st1{fill:#E648FE;}
	.st2{fill:#FEDE1F;}
	.st3{fill:#FEED87;}
</style>
<g>
	<path d="M640,480c-200,0-400,0-600,0c0-12.2-0.1-24.3,0.1-36.5c0-2.8-0.7-3.6-3.6-3.6C24.3,440.1,12.2,440,0,440
		c0-26.7,0-53.3,0-80c13.3,0,26.7,0,40,0c0,12,0.1,24-0.1,36c-0.1,3.2,0.8,4.1,4.1,4.1c77.3-0.1,154.6-0.1,231.9,0
		c3.2,0,4.1-0.8,4.1-4.1c-0.1-37.3-0.1-74.6,0-112c0-3.3-0.9-4.1-4.1-4.1c-25.3,0.1-50.7,0.1-76,0.1c0-12-0.1-24,0.1-35.9
		c0.1-3.7-1.2-4.2-4.5-4.2c-10.3,0.2-20.6-0.2-30.9,0.2c-4.1,0.1-4.8-1.3-4.7-5c0.2-10.5-0.1-21,0.2-31.4c0.1-3.2-0.9-3.8-3.9-3.8
		c-10.8,0.2-21.6,0-32.4,0.2c-3.1,0.1-3.9-0.7-3.8-3.8c0.1-24.1,0.2-48.3,0-72.4c0-3.5,1.2-4,4.2-4c12,0.2,24,0.1,35.9,0
		c0,12,0.1,24-0.1,36c-0.1,3.2,0.7,4.2,4.1,4.1c12-0.2,24,0,36,0c0,11.8,0.2,23.6-0.1,35.4c-0.1,3.9,1.2,4.6,4.7,4.5
		c10.3-0.2,20.6,0.1,30.9-0.2c3.9-0.1,4.6,1.2,4.5,4.7c-0.2,10.6,0,21.3-0.1,31.9c0,2.4,0.4,3.5,3.2,3.5c11.3-0.2,22.6-0.1,33.9,0
		c2.6,0,3-1,3-3.2c-0.1-25.6-0.1-51.2-0.2-76.9c0.1-39,0.1-77.9,0.2-116.9c0-2.8-1.1-3.2-3.5-3.2c-12.2,0.1-24.3,0-36.5,0
		c0-13.3-0.1-26.6-0.1-40c133.3,0,266.7,0,400,0c0,13.3,0,26.7,0,40c-105.3,0-210.7,0-316,0c-0.3,0-0.7,0-1,0
		c-2.4-0.3-3.1,0.6-3.1,3c0.1,39,0.2,78,0.2,117c0,0.3-0.1,0.7-0.1,1c0,78.5,0,156.9-0.1,235.4c0,3.4,1.3,3.7,4.1,3.7
		c104-0.1,207.9-0.1,311.9,0c3.7,0,4.3-1.2,4.2-4.5c-0.2-10.7,0-21.3-0.1-32c0-2.8,0.7-3.7,3.6-3.6c10.5,0.2,21-0.2,31.5,0.2
		c4.3,0.1,5.1-1.2,5.1-5.2c-0.1-63.5-0.1-127-0.1-190.4c0-1.5-0.1-3-0.2-4.5c0-26.7,0.1-53.4,0.1-80c13.3,0,26.7,0,40,0
		c0,106.7,0,213.3,0,320c-12.2,0-24.3,0.1-36.5-0.1c-2.8,0-3.6,0.7-3.6,3.6c0.2,11,0,22,0.1,33c0,2.8-0.7,3.6-3.6,3.6
		c-11-0.2-22,0-33-0.1c-2.8,0-3.6,0.8-3.6,3.6C640.1,455.7,640,467.8,640,480z"/>
	<path class="st0" d="M679.8,160c0.1,1.5,0.2,3,0.2,4.5c0,63.5,0,127,0.1,190.4c0,4.1-0.8,5.4-5.1,5.2c-10.5-0.3-21,0-31.5-0.2
		c-2.9,0-3.6,0.8-3.6,3.6c0.2,10.7-0.1,21.3,0.1,32c0.1,3.3-0.5,4.5-4.2,4.5c-104-0.1-207.9-0.1-311.9,0c-2.8,0-4.1-0.3-4.1-3.7
		C320,317.9,320,239.4,320,161c0-0.3,0.1-0.7,0.1-1c39.9,0,79.8,0,119.7,0c0.1,25.2,0.2,50.3,0.1,75.5c0,3.7,0.9,4.7,4.6,4.7
		c36.8-0.2,73.6-0.2,110.4,0c4.2,0,5.2-1,5.1-5.2c-0.2-25,0-50,0.1-75C600.1,160,639.9,160,679.8,160z"/>
	<path class="st1" d="M679.8,160c-39.9,0-79.8,0-119.7,0c-0.1-12-0.2-24-0.1-36c0-3.3-0.9-4.1-4.1-4.1c-37.3,0.1-74.6,0.1-111.9,0
		c-3.2,0-4.2,0.8-4.1,4.1c0.2,12,0,24-0.1,36c-39.9,0-79.8,0-119.7,0c-0.1-39-0.1-78-0.2-117c0-2.4,0.7-3.4,3.1-3c0.3,0,0.7,0,1,0
		c105.3,0,210.7,0,316,0c0,0-0.1-0.1-0.1-0.1c0,12.1,0.1,24.2,0,36.3c0,3.1,0.8,3.9,3.8,3.8c12.1-0.2,24.2-0.1,36.3,0
		c0,0-0.1-0.1-0.1-0.1C679.9,106.6,679.9,133.3,679.8,160z"/>
	<path class="st2" d="M200,280c25.3,0,50.7,0,76-0.1c3.2,0,4.2,0.8,4.1,4.1c-0.1,37.3-0.1,74.6,0,112c0,3.3-0.9,4.1-4.1,4.1
		c-77.3-0.1-154.6-0.1-231.9,0c-3.3,0-4.1-0.9-4.1-4.1c0.2-12,0.1-24,0.1-36c0,0-0.1,0.1-0.1,0.1c25.2,0,50.5-0.1,75.7,0
		c3.4,0,4.5-0.7,4.4-4.3c-0.2-12-0.1-23.9-0.1-35.9l-0.1,0.1c25.2,0,50.5-0.1,75.7,0c3.4,0,4.5-0.7,4.4-4.3
		c-0.2-12-0.1-23.9-0.1-35.9L200,280z"/>
	<path class="st3" d="M239.9,41c0.1-0.4,0.2-0.7,0.2-1.1c12.2,0,24.3,0.1,36.5,0c2.4,0,3.5,0.3,3.5,3.2c-0.2,39-0.2,77.9-0.2,116.9
		c-26.6,0-53.3,0.1-79.9,0.1c-12,0-24-0.2-36,0c-3.3,0-4.1-0.9-4.1-4.1c0.2-12,0.1-24,0.1-36c0,0-0.1,0.1-0.1,0.1
		c12.1,0,24.2-0.1,36.3,0c3.1,0,3.9-0.8,3.8-3.8c-0.2-12.1,0-24.2,0-36.3l-0.1,0.1c12.1,0,24.2-0.1,36.3,0c3,0,3.9-0.6,3.9-3.8
		C239.8,64.5,239.9,52.8,239.9,41z"/>
	<path class="st2" d="M200,160.1c26.6,0,53.3-0.1,79.9-0.1c0.1,25.6,0.1,51.2,0.2,76.9c0,2.2-0.4,3.2-3,3.2
		c-11.3-0.1-22.6-0.2-33.9,0c-2.8,0-3.2-1.1-3.2-3.5c0.1-10.6-0.1-21.3,0.1-31.9c0.1-3.5-0.6-4.9-4.5-4.7c-10.3,0.3-20.6,0-30.9,0.2
		c-3.6,0.1-4.8-0.6-4.7-4.5C200.2,183.8,200,171.9,200,160.1z"/>
	<path d="M200,279.9c0,12-0.2,23.9,0.1,35.9c0.1,3.6-1,4.3-4.4,4.3c-25.2-0.1-50.5-0.1-75.7,0c0-12,0.2-23.9,0-35.9
		c-0.1-3.6,1-4.3,4.4-4.3C149.6,280,174.8,279.9,200,279.9z"/>
	<path d="M120,319.9c0,12-0.2,23.9,0.1,35.9c0.1,3.6-1,4.3-4.4,4.3c-25.2-0.1-50.5-0.1-75.7,0c0-12,0.2-23.9,0-35.9
		c-0.1-3.6,1-4.3,4.4-4.3C69.6,320,94.8,319.9,120,319.9z"/>
	<path d="M200,79.9c0,12.1-0.1,24.2,0,36.3c0,3.1-0.8,3.9-3.8,3.8c-12.1-0.2-24.2,0-36.3,0c0-12.1,0.2-24.2,0-36.3
		c0-3.1,0.7-3.9,3.8-3.8C175.8,80.1,187.9,79.9,200,79.9z"/>
	<path d="M239.9,41c0,11.7-0.1,23.5,0.2,35.2c0.1,3.1-0.9,3.8-3.9,3.8c-12.1-0.2-24.2,0-36.3,0c0-12,0.1-24,0-35.9
		c0-3,0.5-4.3,3.9-4.2c11.1,0.3,22.2,0.1,33.3,0.2C238.1,40.1,239,40.7,239.9,41z"/>
	<path d="M680.1,80c-12.1,0-24.2-0.1-36.3,0c-3.1,0-3.9-0.8-3.8-3.8c0.2-12.1,0.1-24.2,0-36.3c12.1,0,24.2,0.2,36.3,0
		c3.1,0,3.9,0.7,3.8,3.8C679.9,55.8,680.1,67.9,680.1,80z"/>
	<path d="M439.8,160c0.1-12,0.2-24,0.1-36c0-3.3,0.9-4.1,4.1-4.1c37.3,0.1,74.6,0.1,111.9,0c3.2,0,4.2,0.8,4.1,4.1
		c-0.2,12,0,24,0.1,36c-0.1,25-0.2,50-0.1,75c0,4.1-0.9,5.2-5.1,5.2c-36.8-0.2-73.6-0.2-110.4,0c-3.8,0-4.6-0.9-4.6-4.7
		C440,210.3,439.9,185.1,439.8,160z"/>
</g>
</svg>
